<svg display="none" xmlns="http://www.w3.org/2000/svg">


    <symbol id="slack" viewBox="0 0 12 12">
        <path fill="currentColor" d="M4.435 0a1.304 1.304 0 100 2.609h1.304V1.304A1.304 1.304 0 004.435 0zm3.13 0c-.72 0-1.304.584-1.304 1.304v3.13a1.304 1.304 0 102.609 0v-3.13C8.87.584 8.286 0 7.565 0zm-6.26 3.13a1.304 1.304 0 100 2.61h3.13a1.304 1.304 0 100-2.61h-3.13zm9.39 0c-.72 0-1.304.584-1.304 1.305v1.304h1.305a1.304 1.304 0 100-2.609zm-9.39 3.13a1.304 1.304 0 101.304 1.305V6.261H1.304zm3.13 0c-.72 0-1.305.585-1.305 1.305v3.13a1.304 1.304 0 102.61 0v-3.13c0-.72-.585-1.304-1.305-1.304zm3.13 0a1.304 1.304 0 100 2.61h3.13a1.304 1.304 0 100-2.61h-3.13zM6.261 9.392v1.305A1.304 1.304 0 107.565 9.39H6.261z"/>
    </symbol>

    <symbol id="mail" viewBox="0 0 64 64">
        <path d="M63.125,9.977c-0.902-1.321-2.419-2.194-4.131-2.194H5.006c-1.676,0-3.158,0.842-4.067,2.117l31.16,25.982L63.125,9.977z"/><path d="M0.006,14.328v36.889c0,2.75,2.25,5,5,5h53.988c2.75,0,5-2.25,5-5V14.461L32.099,41.09L0.006,14.328z"/>
    </symbol>

    <symbol id="github" viewBox="0 0 438.549 438.549">
        <path d="M409.132,114.573c-19.608-33.596-46.205-60.194-79.798-79.8C295.736,15.166,259.057,5.365,219.271,5.365
		c-39.781,0-76.472,9.804-110.063,29.408c-33.596,19.605-60.192,46.204-79.8,79.8C9.803,148.168,0,184.854,0,224.63
		c0,47.78,13.94,90.745,41.827,128.906c27.884,38.164,63.906,64.572,108.063,79.227c5.14,0.954,8.945,0.283,11.419-1.996
		c2.475-2.282,3.711-5.14,3.711-8.562c0-0.571-0.049-5.708-0.144-15.417c-0.098-9.709-0.144-18.179-0.144-25.406l-6.567,1.136
		c-4.187,0.767-9.469,1.092-15.846,1c-6.374-0.089-12.991-0.757-19.842-1.999c-6.854-1.231-13.229-4.086-19.13-8.559
		c-5.898-4.473-10.085-10.328-12.56-17.556l-2.855-6.57c-1.903-4.374-4.899-9.233-8.992-14.559
		c-4.093-5.331-8.232-8.945-12.419-10.848l-1.999-1.431c-1.332-0.951-2.568-2.098-3.711-3.429c-1.142-1.331-1.997-2.663-2.568-3.997
		c-0.572-1.335-0.098-2.43,1.427-3.289c1.525-0.859,4.281-1.276,8.28-1.276l5.708,0.853c3.807,0.763,8.516,3.042,14.133,6.851
		c5.614,3.806,10.229,8.754,13.846,14.842c4.38,7.806,9.657,13.754,15.846,17.847c6.184,4.093,12.419,6.136,18.699,6.136
		c6.28,0,11.704-0.476,16.274-1.423c4.565-0.952,8.848-2.383,12.847-4.285c1.713-12.758,6.377-22.559,13.988-29.41
		c-10.848-1.14-20.601-2.857-29.264-5.14c-8.658-2.286-17.605-5.996-26.835-11.14c-9.235-5.137-16.896-11.516-22.985-19.126
		c-6.09-7.614-11.088-17.61-14.987-29.979c-3.901-12.374-5.852-26.648-5.852-42.826c0-23.035,7.52-42.637,22.557-58.817
		c-7.044-17.318-6.379-36.732,1.997-58.24c5.52-1.715,13.706-0.428,24.554,3.853c10.85,4.283,18.794,7.952,23.84,10.994
		c5.046,3.041,9.089,5.618,12.135,7.708c17.705-4.947,35.976-7.421,54.818-7.421s37.117,2.474,54.823,7.421l10.849-6.849
		c7.419-4.57,16.18-8.758,26.262-12.565c10.088-3.805,17.802-4.853,23.134-3.138c8.562,21.509,9.325,40.922,2.279,58.24
		c15.036,16.18,22.559,35.787,22.559,58.817c0,16.178-1.958,30.497-5.853,42.966c-3.9,12.471-8.941,22.457-15.125,29.979
		c-6.191,7.521-13.901,13.85-23.131,18.986c-9.232,5.14-18.182,8.85-26.84,11.136c-8.662,2.286-18.415,4.004-29.263,5.146
		c9.894,8.562,14.842,22.077,14.842,40.539v60.237c0,3.422,1.19,6.279,3.572,8.562c2.379,2.279,6.136,2.95,11.276,1.995
		c44.163-14.653,80.185-41.062,108.068-79.226c27.88-38.161,41.825-81.126,41.825-128.906
		C438.536,184.851,428.728,148.168,409.132,114.573z"/>
    </symbol>

    <symbol id="codewars" viewBox="0 0 32 32">
        <path d="M1.016 16.266l-0.109-0.052c-0.24-0.135-0.427-0.333-0.557-0.589-0.188-0.344-0.271-0.667-0.271-1l0.026-0.172c0-0.266 0.068-0.505 0.188-0.734l0.109-0.198c0.052-0.109 0.13-0.203 0.198-0.292 0.083-0.094 0.094-0.214 0.068-0.323l-0.068-0.214c-0.078-0.266-0.13-0.531-0.13-0.797l-0.042-0.161c0-0.297 0.078-0.589 0.266-0.802l0.135-0.172c0.094-0.135 0.24-0.214 0.401-0.266 0.13-0.042 0.224-0.177 0.24-0.333l0.026-0.453c0-0.359 0.172-0.693 0.438-0.938l0.323-0.24c0.063-0.063 0.13-0.13 0.182-0.24 0.068-0.078 0.083-0.188 0.068-0.266-0.026-0.13 0-0.172 0.068-0.188 0.214 0.083 0.349 0.057 0.443-0.052l0.172-0.224 0.479-0.536c0.135-0.13 0.188-0.375 0.104-0.557l-0.156-0.349c-0.026-0.078 0-0.172 0.068-0.198 0.172 0 0.292 0.063 0.344 0.172l0.052 0.094c0.083 0.161 0.271 0.24 0.401 0.172 0.292-0.104 0.536-0.13 0.76-0.13h0.427c0.292 0 0.531-0.203 0.589-0.51 0.052-0.37 0.182-0.667 0.37-0.865 0.203-0.229 0.427-0.401 0.693-0.536 0.349-0.182 0.563-0.453 0.63-0.797 0.094-0.427 0.318-0.734 0.625-0.932l1.016-0.573 0.292-0.177c0.172-0.104 0.333-0.24 0.469-0.401l0.266-0.318c0.13-0.135 0.266-0.224 0.427-0.266 0.13-0.042 0.318-0.068 0.479-0.052l0.531 0.036c0.266 0 0.479 0.068 0.693 0.161l0.135 0.068c0.135 0.052 0.266 0.026 0.333-0.068l0.12-0.068 0.573-0.599c0.135-0.135 0.292-0.188 0.469-0.161 0.172 0.026 0.344 0.094 0.505 0.177 0.24 0.13 0.438 0.182 0.667 0.182h0.135c0.292 0 0.583 0.042 0.88 0.109l0.198 0.052c0.198 0.052 0.401-0.026 0.531-0.188 0.042-0.068 0.135-0.078 0.188-0.026 0.042 0.026 0.052 0.052 0.068 0.094 0.026 0.266 0.188 0.469 0.401 0.531l0.214 0.068c0.224 0.068 0.427 0.214 0.557 0.401 0.135 0.198 0.297 0.401 0.479 0.531l0.135 0.135c0.135 0.135 0.318 0.188 0.505 0.172h0.786c0.323 0 0.63 0.057 0.938 0.188 0.292 0.135 0.599 0.161 0.875 0.052 0.297-0.089 0.604-0.13 0.911-0.089l0.573 0.089c0.266 0.031 0.531 0.161 0.693 0.365l0.068 0.063c0.13 0.135 0.266 0.307 0.396 0.495 0.083 0.172 0.271 0.266 0.453 0.266h0.828c0.203 0 0.401 0.042 0.563 0.135 0.172 0.13 0.318 0.266 0.453 0.401l0.13 0.172c0.161 0.188 0.24 0.438 0.229 0.708 0 0.214 0.161 0.396 0.37 0.396l0.271 0.031c0.188 0 0.344 0.13 0.438 0.302l0.135 0.271 0.344 0.771c0.057 0.135 0.068 0.266 0.057 0.375 0 0.13 0.036 0.24 0.13 0.292l0.135 0.094c0.172 0.135 0.266 0.333 0.24 0.563l-0.094 0.625-0.026 0.266c-0.026 0.135 0.036 0.307 0.161 0.401 0.198 0.13 0.292 0.307 0.302 0.505v0.266c0 0.135-0.026 0.297-0.13 0.401-0.083 0.109-0.135 0.24-0.135 0.401l0.042 0.307c0 0.214 0.13 0.401 0.266 0.531 0.188 0.135 0.292 0.349 0.323 0.563 0.052 0.333 0.063 0.599 0.063 0.865v0.307c0 0.109 0 0.214 0.042 0.318 0.026 0.094 0.094 0.188 0.172 0.245l0.266 0.198c0.271 0.172 0.458 0.401 0.563 0.708 0.135 0.292 0.172 0.599 0.172 0.906v0.104c0 0.24-0.026 0.495-0.104 0.719-0.068 0.245-0.052 0.469 0.036 0.667 0.109 0.188 0.177 0.401 0.203 0.63 0.052 0.266 0.026 0.531-0.068 0.745l-0.026 0.094c-0.068 0.161-0.172 0.307-0.307 0.427-0.135 0.135-0.266 0.214-0.344 0.307-0.083 0.078-0.135 0.214-0.094 0.333l0.036 0.188c0.068 0.266 0.068 0.531 0 0.771v0.109c-0.052 0.198-0.13 0.37-0.214 0.531-0.094 0.172-0.224 0.307-0.396 0.401l-0.203 0.13c-0.094 0.057-0.161 0.177-0.161 0.297 0 0.13-0.052 0.266-0.13 0.344l-0.203 0.271c-0.13 0.172-0.302 0.318-0.49 0.396-0.188 0.135-0.349 0.271-0.469 0.401-0.135 0.161-0.24 0.349-0.292 0.536-0.052 0.24-0.24 0.37-0.443 0.37h-0.719c-0.188 0-0.359 0.135-0.438 0.297-0.094 0.208-0.188 0.359-0.307 0.49-0.135 0.135-0.214 0.297-0.271 0.479-0.026 0.161-0.156 0.271-0.292 0.214-0.172-0.078-0.344 0-0.427 0.135-0.156 0.266-0.318 0.469-0.49 0.641l-0.094 0.078c-0.177 0.135-0.401 0.24-0.604 0.24-0.24 0-0.359 0.109-0.396 0.266-0.042 0.135-0.068 0.307-0.083 0.458-0.026 0.156-0.078 0.302-0.13 0.438l-0.068 0.078c-0.135 0.203-0.24 0.401-0.375 0.573l-0.052 0.083c-0.172 0.224-0.401 0.401-0.667 0.464-0.323 0.109-0.599 0.135-0.88 0.135h-0.188c-0.13 0-0.266 0.078-0.359 0.214l-0.078 0.135-0.083 0.156-0.172 0.297c-0.135 0.24-0.333 0.396-0.599 0.479-0.266 0.068-0.573 0.094-0.854 0.078l-0.214-0.026c-0.188 0-0.359-0.052-0.531-0.135-0.135-0.052-0.323 0-0.401 0.135-0.135 0.188-0.297 0.292-0.469 0.349l-0.401 0.13c-0.266 0.068-0.557 0.068-0.839 0l-0.214-0.068c-0.13 0-0.266-0.063-0.375-0.13-0.13-0.068-0.266-0.094-0.396-0.083l-0.177 0.031c-0.266 0.026-0.505 0-0.745-0.068l-0.359-0.083c-0.161-0.052-0.307-0.156-0.401-0.307-0.068-0.13-0.214-0.24-0.401-0.266h-0.427c-0.266-0.036-0.505-0.13-0.667-0.333l-0.531-0.505-0.188-0.161-0.292-0.214-0.172-0.13c-0.203-0.135-0.443-0.24-0.698-0.266l-0.797-0.135c-0.083 0-0.135-0.026-0.214-0.042l-0.307-0.068c-0.135-0.026-0.266-0.13-0.359-0.266-0.078-0.13-0.229-0.188-0.359-0.13-0.266 0.104-0.479 0.13-0.693 0.172h-0.188c-0.349 0.026-0.667-0.026-0.99-0.172-0.318-0.135-0.531-0.333-0.729-0.589-0.161-0.229-0.401-0.401-0.698-0.453l-0.37-0.078c-0.266-0.057-0.536-0.161-0.776-0.323-0.266-0.188-0.401-0.359-0.505-0.573-0.104-0.198-0.172-0.427-0.188-0.667v-0.104c-0.026-0.271-0.214-0.51-0.464-0.573-0.307-0.094-0.536-0.229-0.734-0.401-0.188-0.177-0.297-0.427-0.297-0.693l0.031-0.589c0-0.229-0.068-0.427-0.229-0.573-0.161-0.161-0.266-0.359-0.266-0.573l-0.042-0.479c-0.026-0.349-0.094-0.693-0.172-1.042-0.078-0.307 0.042-0.615 0.292-0.76l0.094-0.068c0.135-0.094 0.188-0.266 0.109-0.427l-0.109-0.13c-0.13-0.135-0.266-0.229-0.401-0.266-0.104-0.031-0.13-0.135-0.13-0.203l0.13-0.161c0.083-0.094 0.068-0.24 0-0.318-0.104-0.109-0.156-0.24-0.172-0.375l-0.026-0.932c0-0.188 0.026-0.375 0.078-0.557 0.057-0.161 0-0.349-0.156-0.427zM14.214 14.505c0.094-0.094 0.078-0.266 0-0.333-0.135-0.104-0.229-0.224-0.307-0.359l-0.135-0.214c-0.089-0.172-0.208-0.318-0.344-0.453l-0.026-0.026c-0.135-0.104-0.229-0.24-0.307-0.401-0.068-0.13-0.068-0.266 0-0.401l0.078-0.13c0.083-0.135 0.135-0.323 0.135-0.479v-0.057c0-0.13-0.052-0.266-0.135-0.396-0.052-0.109-0.104-0.24-0.13-0.375v-0.078c-0.042-0.161 0-0.333 0.104-0.469 0.109-0.172 0.188-0.333 0.229-0.531v-0.031c0.052-0.13 0.026-0.302-0.057-0.438-0.078-0.135-0.104-0.266-0.052-0.427l0.094-0.266c0.078-0.24 0.203-0.453 0.359-0.641l0.188-0.198 0.135-0.161 0.078-0.078c0.078-0.083 0.094-0.214 0.026-0.323-0.068-0.135-0.104-0.266-0.078-0.401l0.026-0.188c0.042-0.266 0.135-0.531 0.307-0.745l0.052-0.052c0.198-0.266 0.453-0.443 0.745-0.536l0.365-0.13c0.156-0.052 0.266-0.229 0.266-0.401 0-0.214 0.068-0.401 0.187-0.573l0.063-0.068c0.135-0.224 0.297-0.453 0.401-0.693l0.094-0.172c0.026-0.042 0.042-0.094 0.042-0.135 0-0.224-0.135-0.427-0.349-0.438l-0.583-0.042c-0.333-0.026-0.667 0-0.99 0l-1.13 0.135c-0.177 0-0.307 0.13-0.323 0.318 0 0.188-0.135 0.349-0.292 0.401l-0.479 0.13-0.135 0.042-0.401 0.135c-0.292 0.094-0.531 0.307-0.667 0.599l-0.104 0.172c-0.135 0.297-0.359 0.536-0.641 0.708-0.266 0.172-0.401 0.453-0.427 0.771v0.135c-0.026 0.266-0.109 0.531-0.266 0.719l-0.068 0.109c-0.109 0.13-0.135 0.307-0.068 0.453 0.068 0.156 0.109 0.333 0.094 0.505v0.708c0 0.188-0.135 0.344-0.266 0.396-0.188 0.068-0.307 0.214-0.359 0.401l-0.068 0.266c-0.052 0.271 0.042 0.536 0.266 0.698 0.214 0.156 0.349 0.396 0.401 0.693v0.24c0.042 0.266 0.188 0.531 0.427 0.667 0.24 0.161 0.427 0.401 0.531 0.667l0.068 0.214c0.109 0.292 0.349 0.464 0.615 0.49h0.078c0.24 0 0.453 0.135 0.589 0.349 0.13 0.214 0.344 0.359 0.583 0.401l0.375 0.104c0.229 0.068 0.443 0.188 0.615 0.359l0.026 0.031c0.135 0.104 0.349 0.089 0.469-0.057l0.094-0.104zM15.734 13.281c0.13 0.078 0.266 0.036 0.318-0.083l0.042-0.063c0.094-0.188 0.214-0.375 0.344-0.536l0.271-0.401c0.036 0 0.052-0.026 0.063-0.052l0.323-0.427c0.135-0.13 0.292-0.224 0.479-0.224 0.172 0 0.323-0.094 0.401-0.266 0.052-0.188 0.13-0.365 0.292-0.51l0.068-0.078c0.135-0.135 0.266-0.203 0.401-0.266 0.172-0.026 0.333-0.057 0.495-0.057h0.396c0.161 0 0.297-0.063 0.375-0.198s0.198-0.224 0.333-0.292l0.135-0.057c0.214-0.089 0.453-0.156 0.693-0.182l0.266-0.026c0.161 0 0.333 0 0.495 0.089 0.13 0.094 0.307 0.083 0.438-0.026l0.094-0.052c0.198-0.135 0.427-0.24 0.667-0.266h0.026c0.266-0.052 0.505-0.052 0.776-0.042h0.13c0.266 0.042 0.495 0.135 0.667 0.333l0.042 0.052c0.135 0.135 0.344 0.245 0.531 0.245h0.229c0.068 0 0.13-0.031 0.172-0.094 0.042-0.042 0.109-0.083 0.172-0.083h0.135c0.188 0 0.359 0.052 0.531 0.109l0.229 0.094c0.214 0.063 0.438 0.13 0.667 0.156h0.161c0.104 0 0.172-0.063 0.172-0.156 0-0.135-0.026-0.271-0.094-0.375l-0.094-0.214c-0.104-0.172-0.188-0.359-0.266-0.531l-0.026-0.068c-0.068-0.135-0.068-0.266 0-0.401v-0.068c0.026-0.104-0.026-0.224-0.135-0.266h-0.104c-0.214-0.068-0.401-0.188-0.536-0.359l-0.13-0.135c-0.135-0.13-0.214-0.333-0.271-0.531-0.063-0.172-0.208-0.307-0.396-0.307h-0.563c-0.198-0.026-0.375-0.135-0.495-0.292l-0.052-0.068c-0.094-0.135-0.172-0.292-0.224-0.453-0.068-0.135-0.214-0.214-0.349-0.172l-0.161 0.052c-0.266 0.094-0.531 0.13-0.797 0.104l-0.214-0.026c-0.229 0-0.443-0.094-0.615-0.224l-0.135-0.094c-0.104-0.083-0.208-0.135-0.333-0.188-0.13-0.052-0.24-0.026-0.318 0.068l-0.068 0.078c-0.13 0.135-0.318 0.24-0.505 0.266l-0.719 0.042c-0.135 0-0.266 0.068-0.359 0.161-0.109 0.094-0.229 0.156-0.365 0.182h-0.026c-0.13 0-0.266 0.094-0.396 0.188v0.026c-0.135 0.135-0.307 0.203-0.484 0.203l-0.052 0.026c-0.161 0-0.318 0-0.479 0.042h-0.161c-0.224 0.036-0.401 0.224-0.453 0.464l-0.052 0.307c-0.042 0.214-0.135 0.401-0.266 0.573-0.135 0.161-0.297 0.266-0.495 0.266h-0.224c-0.135 0.031-0.271 0.177-0.245 0.333 0.031 0.229 0 0.427-0.036 0.63l-0.052 0.224c-0.057 0.203-0.188 0.359-0.365 0.427l-0.078 0.042h-0.026c-0.078 0.052-0.135 0.172-0.068 0.266 0.083 0.135 0.109 0.266 0.094 0.401l-0.042 0.427c0 0.156-0.063 0.307-0.13 0.438-0.083 0.135-0.083 0.266-0.026 0.401l0.13 0.292c0.068 0.135 0.083 0.271 0.042 0.427-0.042 0.135-0.068 0.266-0.052 0.401 0 0.135 0.078 0.266 0.188 0.323zM26.266 22.922c0.135 0.13 0.333 0.182 0.495 0.078l0.266-0.172c0.135-0.094 0.24-0.229 0.292-0.401v-0.026l0.135-0.401 0.078-0.135 0.057-0.13 0.052-0.094c0.052-0.109 0.13-0.188 0.266-0.229l0.052-0.026c0.109-0.026 0.177-0.13 0.177-0.24 0-0.13 0.063-0.24 0.13-0.333l0.109-0.094 0.266-0.344v-0.026c0.078-0.109 0.13-0.229 0.161-0.365 0.026-0.13 0-0.266-0.057-0.396l-0.026-0.057c-0.052-0.13-0.078-0.224-0.094-0.344l-0.036-0.375-0.042-0.401c0-0.13 0.052-0.266 0.135-0.396 0.089-0.109 0.156-0.245 0.214-0.375v-0.052l0.026-0.026c0.026-0.135-0.042-0.271-0.161-0.271-0.135-0.063-0.266-0.172-0.307-0.333l-0.042-0.078c-0.063-0.24-0.104-0.479-0.104-0.719l0.026-0.667v-0.042c0-0.224-0.188-0.401-0.401-0.401h-0.026c-0.266 0-0.479-0.078-0.667-0.266l-0.104-0.135-0.271-0.302-0.344-0.401c-0.135-0.188-0.266-0.349-0.443-0.51-0.13-0.13-0.333-0.266-0.531-0.292l-0.266-0.042c-0.135-0.026-0.307-0.089-0.453-0.182-0.109-0.083-0.266-0.057-0.375 0.052l-0.172 0.188-0.083 0.052c-0.094 0.026-0.182-0.026-0.224-0.135-0.052-0.156-0.052-0.344 0.026-0.505v-0.078c0-0.094-0.078-0.161-0.161-0.135h-0.214c-0.24 0-0.479-0.026-0.703-0.13l-0.135-0.057c-0.135-0.068-0.292-0.104-0.438-0.104-0.135 0-0.271 0.026-0.401 0.104l-0.052 0.042c-0.161 0.104-0.349 0.161-0.536 0.172h-0.438c-0.203 0-0.401 0.068-0.536 0.177-0.172 0.104-0.359 0.172-0.557 0.208l-0.359 0.057c-0.161 0.036-0.333 0.104-0.484 0.224-0.13 0.135-0.318 0.214-0.49 0.266l-0.068 0.031c-0.214 0.063-0.401 0.198-0.531 0.396l-0.161 0.161c-0.094 0.135-0.094 0.292 0 0.427 0.078 0.135 0.24 0.172 0.401 0.135l0.198-0.083c0.104-0.036 0.229 0 0.318 0.052 0.083 0.068 0.203 0.109 0.323 0.094l0.333-0.036c0.188 0 0.375 0 0.557 0.052 0.203 0.068 0.375 0.135 0.536 0.266 0.161 0.135 0.333 0.188 0.531 0.214 0.203 0.026 0.401 0.068 0.589 0.135l0.13 0.026c0.135 0.042 0.245 0.13 0.323 0.266 0.068 0.109 0.13 0.266 0.13 0.401v0.042c0 0.156 0.135 0.266 0.271 0.266h0.078c0.214 0 0.443 0.026 0.667 0.094l0.094 0.036c0.135 0.057 0.266 0.135 0.359 0.271 0.109 0.13 0.172 0.266 0.214 0.396l0.042 0.188c0.036 0.203 0.052 0.401 0.052 0.615v0.068c0 0.13 0.094 0.266 0.24 0.318 0.135 0.026 0.292 0.083 0.443 0.161l0.063 0.026c0.177 0.104 0.349 0.24 0.479 0.401l0.068 0.094c0.177 0.198 0.266 0.453 0.266 0.703v0.094c0 0.203-0.036 0.401-0.104 0.589-0.052 0.161 0 0.349 0.172 0.401l0.094 0.068c0.203 0.078 0.375 0.224 0.505 0.396 0.135 0.203 0.188 0.427 0.188 0.667v0.401c-0.026 0.135-0.063 0.24-0.13 0.333s-0.068 0.229 0 0.323l0.078 0.13zM17.734 16.094h-0.026c-0.057 0-0.083 0.068-0.068 0.135l0.052 0.266c0.052 0.214 0.078 0.427 0.109 0.641 0.026 0.214 0.13 0.396 0.292 0.531h0.052c0.203 0.161 0.323 0.401 0.333 0.641v0.667c-0.026 0.13 0 0.266 0.083 0.375l0.063 0.063c0.135 0.161 0.188 0.349 0.203 0.536l0.036 0.734c0 0.172-0.104 0.318-0.266 0.344l-0.13 0.026c-0.094 0-0.135 0.109-0.135 0.203 0 0.104 0.042 0.224 0.078 0.333v0.026c0.042 0.13 0.057 0.266 0.042 0.401l-0.052 0.359c-0.052 0.266-0.135 0.505-0.266 0.745l-0.094 0.161c-0.068 0.13-0.161 0.214-0.271 0.266-0.13 0.052-0.224 0.161-0.266 0.292l-0.104 0.479c-0.068 0.271-0.188 0.536-0.349 0.802h-0.026c-0.161 0.214-0.359 0.401-0.599 0.531l-0.161 0.109-0.401 0.198c-0.13 0.057-0.214 0.177-0.24 0.323l-0.063 0.438c-0.042 0.266-0.135 0.495-0.323 0.667l-0.172 0.203-0.203 0.198-0.198 0.214c-0.161 0.188-0.401 0.266-0.667 0.229l-0.479-0.094-0.443-0.057h-0.12c-0.052 0.057-0.063 0.135-0.026 0.214 0.094 0.161 0.24 0.271 0.401 0.271l0.292 0.052c0.135 0 0.297 0.068 0.427 0.13 0.135 0.094 0.266 0.161 0.427 0.203h0.026c0.177 0.068 0.359 0.078 0.536 0.068l0.198-0.031c0.229-0.026 0.443 0 0.625 0.083l0.161 0.052c0.068 0.026 0.172 0 0.24-0.068 0.083-0.078 0.161-0.13 0.266-0.172l0.109-0.026c0.172-0.052 0.344-0.083 0.531-0.083h0.109c0.156 0 0.307 0.031 0.438 0.109l0.052 0.026c0.094 0.042 0.203 0 0.271-0.078 0.036-0.094 0.13-0.188 0.224-0.266l0.333-0.229 0.214-0.135 0.109-0.063c0.13-0.094 0.318-0.135 0.479-0.135l0.479-0.042c0.188-0.026 0.349-0.156 0.401-0.344 0.052-0.203 0.13-0.401 0.266-0.573 0.135-0.177 0.266-0.323 0.401-0.453 0.172-0.135 0.344-0.203 0.531-0.214h0.109c0.214-0.042 0.37-0.24 0.359-0.453v-0.896c0.026-0.13 0.078-0.307 0.156-0.438l0.271-0.401 0.104-0.135c0.083-0.068 0.135-0.156 0.229-0.266l0.13-0.172c0.083-0.135 0.083-0.307-0.026-0.427-0.13-0.135-0.198-0.323-0.224-0.505v-0.057c-0.026-0.214-0.026-0.438 0.036-0.667v-0.063c0.068-0.177 0.161-0.349 0.271-0.51 0.104-0.13 0.089-0.318-0.042-0.427l-0.229-0.198c-0.188-0.161-0.292-0.401-0.318-0.641l-0.026-0.266c0-0.083 0-0.172-0.026-0.266l-0.026-0.203c-0.031-0.224-0.161-0.401-0.349-0.531l-0.094-0.026c-0.135-0.083-0.266-0.203-0.375-0.359-0.104-0.135-0.156-0.323-0.198-0.51l-0.042-0.224c0-0.083-0.052-0.135-0.13-0.172l-0.641-0.203c-0.135-0.026-0.266-0.13-0.359-0.224h-0.026c-0.083-0.109-0.214-0.109-0.297-0.031l-0.13 0.135c-0.026 0.042-0.057 0.052-0.094 0.042-0.083 0-0.135-0.068-0.109-0.135 0.026-0.214-0.052-0.427-0.224-0.557l-0.177-0.135-0.396-0.266c-0.109-0.042-0.271 0-0.323 0.13l-0.052 0.083c0 0.026-0.042 0.036-0.052 0.052-0.057 0-0.135 0-0.135-0.068l-0.042-0.068c-0.036-0.078-0.13-0.13-0.214-0.156zM16.135 17.427l-0.068-0.068c-0.068-0.052-0.135-0.042-0.203 0.026-0.094 0.161-0.172 0.333-0.214 0.51v0.026c-0.036 0.172-0.198 0.292-0.359 0.266h-0.156c-0.188 0-0.333 0.161-0.333 0.344 0 0.24-0.083 0.484-0.229 0.667l-0.078 0.083c-0.135 0.172-0.333 0.292-0.536 0.359l-0.104 0.026c-0.135 0.042-0.24 0.135-0.266 0.292 0 0.135-0.083 0.271-0.188 0.375l-0.135 0.104c-0.161 0.177-0.401 0.271-0.641 0.297l-0.667 0.068c-0.214 0-0.396 0.13-0.531 0.333-0.135 0.198-0.333 0.333-0.531 0.359l-0.297 0.026c-0.214 0.026-0.438 0.026-0.667-0.026l-0.13-0.026-0.365-0.094c-0.13-0.042-0.24 0-0.318 0.094l-0.135 0.172c-0.172 0.198-0.422 0.292-0.667 0.266l-0.865-0.104c-0.135 0-0.24-0.068-0.359-0.135-0.135-0.078-0.229-0.172-0.323-0.266l-0.333-0.401c-0.036-0.026-0.104-0.042-0.172-0.026l-0.188 0.078-0.745 0.188c-0.135 0.042-0.307 0-0.438-0.078-0.135-0.109-0.297-0.135-0.458-0.135h-0.172c-0.161 0.042-0.266 0.214-0.214 0.375l0.052 0.266c0.042 0.135 0.031 0.292-0.036 0.427s-0.052 0.266 0.036 0.401l0.083 0.104c0.104 0.161 0.266 0.297 0.401 0.427 0.13 0.135 0.266 0.266 0.37 0.443l0.203 0.359c0.104 0.188 0.266 0.292 0.479 0.292 0.198 0 0.401 0.068 0.557 0.198l0.401 0.375c0.109 0.094 0.266 0.109 0.375 0.026l0.068-0.026c0.078 0 0.13 0.052 0.13 0.135v0.068c0 0.172 0.135 0.333 0.307 0.396l0.599 0.135c0.214 0.068 0.427 0.135 0.63 0.266h0.104c0.109 0 0.203-0.094 0.188-0.214v-0.464c0-0.135 0.052-0.271 0.161-0.323l0.068-0.026c0.063 0.026 0.13 0.078 0.104 0.135v0.224c0 0.172 0.052 0.333 0.172 0.453 0.135 0.135 0.307 0.161 0.453 0.109 0.161-0.068 0.323-0.083 0.495-0.068l0.495 0.026c0.24 0.026 0.464 0 0.667-0.094 0.24-0.078 0.438-0.188 0.625-0.333l0.078-0.052 0.401-0.359c0.135-0.135 0.307-0.203 0.469-0.203h0.531c0.266-0.026 0.51-0.266 0.536-0.531l0.052-0.266c0-0.177 0.078-0.333 0.198-0.469 0.135-0.135 0.266-0.214 0.401-0.266l0.161-0.068c0.224-0.094 0.401-0.292 0.479-0.531l0.078-0.323c0.068-0.266 0.203-0.531 0.401-0.703l0.026-0.031c0.161-0.13 0.188-0.396 0.083-0.583l-0.042-0.094c-0.094-0.135-0.109-0.333-0.042-0.505 0.068-0.188 0.135-0.349 0.24-0.51l0.135-0.188c0.052-0.104 0.052-0.266-0.026-0.359-0.083-0.104-0.135-0.24-0.135-0.37l-0.026-0.188v-0.453c0.026-0.135 0-0.307-0.042-0.443l-0.052-0.156zM14.229 16.411v-0.036c0-0.135-0.083-0.214-0.188-0.214h-0.349c-0.13 0.026-0.266 0.026-0.375 0h-0.599c-0.307 0-0.599-0.057-0.891-0.135l-0.323-0.078-0.266-0.083-0.599-0.198c-0.323-0.094-0.563-0.307-0.708-0.599l-0.068-0.135c-0.094-0.198-0.292-0.307-0.49-0.266-0.229 0-0.453 0-0.667-0.104l-0.161-0.068c-0.307-0.135-0.531-0.401-0.531-0.76l-0.057-0.359c-0.036-0.188-0.156-0.359-0.318-0.427-0.188-0.083-0.359-0.188-0.536-0.307l-0.063-0.042c-0.203-0.161-0.375-0.37-0.469-0.625l-0.026-0.078c-0.068-0.214-0.078-0.443-0.026-0.667l0.026-0.083c0.052-0.172 0.068-0.344 0.068-0.531 0-0.161-0.068-0.323-0.188-0.443l-0.188-0.172c-0.214-0.172-0.344-0.427-0.359-0.708-0.026-0.292-0.026-0.573 0.026-0.854v-0.078c0-0.161-0.135-0.266-0.266-0.266h-0.042c-0.172 0-0.318 0.104-0.401 0.266-0.063 0.188-0.172 0.333-0.292 0.479l-0.052 0.068-0.401 0.401c-0.135 0.13-0.214 0.333-0.24 0.531-0.026 0.203-0.078 0.401-0.161 0.589l-0.026 0.068c-0.068 0.156-0.172 0.307-0.307 0.401-0.13 0.104-0.224 0.266-0.224 0.422l-0.026 0.615c0 0.266-0.042 0.536-0.135 0.802l-0.026 0.104c-0.068 0.177 0 0.359 0.161 0.443l0.557 0.24 0.052 0.026c0.042 0 0.057 0.026 0.068 0.068 0.042 0.052 0 0.13-0.042 0.13l-0.13 0.068c-0.078 0.026-0.135 0.109-0.161 0.203l-0.026 0.13v0.026l-0.135 0.75c-0.026 0.104-0.026 0.224-0.026 0.344 0 0.109 0.068 0.203 0.161 0.24l0.292 0.135c0.135 0.078 0.297 0.172 0.401 0.266l0.135 0.109c0.036 0.052 0.104 0.104 0.156 0.13l0.057 0.052c0.094 0.083 0.156 0.188 0.188 0.307l0.13 0.599c0 0.161 0.135 0.297 0.266 0.333l0.214 0.068c0 0 0.042 0 0.068 0.026l0.266 0.083c0.214 0.068 0.401 0.188 0.563 0.344 0.161 0.135 0.318 0.307 0.453 0.495l0.052 0.052c0.109 0.135 0.266 0.203 0.427 0.161s0.333-0.052 0.505-0.052h0.203c0.13 0 0.307 0.036 0.453 0.13 0.13 0.083 0.307 0.135 0.464 0.203h0.042c0.161 0.068 0.333 0.036 0.469-0.052 0.13-0.109 0.307-0.161 0.479-0.161l0.625 0.036c0.135 0 0.266-0.026 0.333-0.13h0.026l0.229-0.214 0.068-0.068c0.104-0.13 0.266-0.188 0.422-0.198h0.604c0.156 0 0.307-0.135 0.37-0.266 0.068-0.135 0.203-0.245 0.359-0.271l0.271-0.052c0.104 0 0.198-0.094 0.24-0.214 0.036-0.13 0.104-0.24 0.198-0.318l0.214-0.214c0.135-0.135 0.203-0.266 0.229-0.427z"/>
    </symbol>

    <symbol id="discord" viewBox="0 0 64 64">
        <path d="M39.75,33.21a2.89,2.89,0,1,1-2.89-2.89A2.89,2.89,0,0,1,39.75,33.21ZM26.94,30.32a2.89,2.89,0,1,0,2.89,2.89A2.89,2.89,0,0,0,26.94,30.32ZM63.86,32a31.73,31.73,0,0,1-3.37,14.26A10.13,10.13,0,0,0,46.18,60.55,31.9,31.9,0,1,1,63.86,32ZM44,23.05a1,1,0,0,0-.36-.42,14.64,14.64,0,0,0-7.44-2.41l-.06.23c4.25,1.15,5.91,2.54,6.44,3.11a.06.06,0,0,1-.08.1C38.18,21.3,32,21.43,32,21.43s-6.21-.13-10.55,2.23c-.06,0-.12,0-.07-.1.53-.57,2.19-2,6.44-3.11l-.06-.23a14.64,14.64,0,0,0-7.44,2.41,1,1,0,0,0-.36.42c-.68,1.49-4,9.23-3.68,15.69,0,0,2.09,3.87,8.05,4.19a.24.24,0,0,0,.21-.09l1.33-1.71a.23.23,0,0,0-.07-.35c-.89-.47-3.93-2.14-5-3.76A23.57,23.57,0,0,0,32,40.59,23.58,23.58,0,0,0,43.21,37c-1.11,1.62-4.15,3.29-5,3.76a.23.23,0,0,0-.07.35l1.33,1.71a.24.24,0,0,0,.21.09c6-.32,8-4.19,8-4.19C48.05,32.28,44.69,24.54,44,23.05ZM60.13,53.86a6.34,6.34,0,1,1-6.34-6.34A6.34,6.34,0,0,1,60.13,53.86Zm-3.51-2.29a1,1,0,0,0-1.39.26L53.3,54.66l-1.08-1a1,1,0,0,0-1.42,0,1,1,0,0,0,0,1.41l1.93,1.88a1,1,0,0,0,.7.28h.1a1,1,0,0,0,.73-.43L56.89,53A1,1,0,0,0,56.62,51.57Z"/>
    </symbol>
</svg>